<?xml version="1.0" encoding="UTF-8" standalone="no"?>
<!-- Created with Inkscape (http://www.inkscape.org/) -->

<svg
   version="1.1"
   id="svg2"
   width="682.66669"
   height="682.66669"
   viewBox="0 0 682.66669 682.66669"
   xmlns="http://www.w3.org/2000/svg"
   xmlns:svg="http://www.w3.org/2000/svg">
  <defs
     id="defs6" />
  <g
     id="g8">
    <g
       id="g199"
       transform="translate(-1.257991,1.1170347)">
      <path
         style="fill:#d0fee8;stroke-width:1.33333"
         d="m 314.33334,681.78365 c 0.91667,-0.36988 2.41667,-0.36988 3.33334,0 0.91666,0.36988 0.16666,0.67252 -1.66667,0.67252 -1.83333,0 -2.58333,-0.30264 -1.66667,-0.67252 z m 50.66667,0 c 0.91667,-0.36988 2.41667,-0.36988 3.33334,0 0.91666,0.36988 0.16666,0.67252 -1.66667,0.67252 -1.83333,0 -2.58333,-0.30264 -1.66667,-0.67252 z m -63.91667,-1.36111 c 0.9625,-0.38516 2.1125,-0.3378 2.55556,0.1052 0.44306,0.44306 -0.34445,0.75819 -1.75,0.7003 -1.55326,-0.064 -1.8692,-0.37992 -0.80556,-0.80555 z m 14.66667,-78.66667 c 0.96249,-0.38516 2.11249,-0.3378 2.55556,0.1052 0.44305,0.44306 -0.34445,0.75819 -1.75,0.7003 -1.55327,-0.064 -1.8692,-0.37992 -0.80556,-0.80555 z m 49.33334,0 c 0.96249,-0.38516 2.1125,-0.3378 2.55556,0.1052 0.44305,0.44306 -0.34446,0.75819 -1.75,0.7003 -1.55327,-0.064 -1.8692,-0.37992 -0.80556,-0.80555 z m 196.25,0.4074 c 0,-0.27686 1.05,-1.32686 2.33334,-2.33333 2.11474,-1.65849 2.1619,-1.61133 0.50341,0.50341 -1.74183,2.221 -2.83675,2.92731 -2.83675,1.82992 z m 20.66667,-19.49658 c 5.094,-5.13334 9.56181,-9.33334 9.92848,-9.33334 0.36667,0 -3.50115,4.2 -8.59515,9.33334 -5.094,5.13333 -9.56181,9.33333 -9.92848,9.33333 -0.36666,0 3.50115,-4.2 8.59515,-9.33333 z m -482.708421,-0.33334 -7.958263,-8.33333 8.333334,7.95827 C 104.25,586.33533 108,590.08533 108,590.29162 c 0,0.9852 -1.31586,-0.21731 -8.708401,-7.95827 z M 598.66669,564.82994 c 0,-0.27687 1.05,-1.32687 2.33333,-2.33333 2.11475,-1.6585 2.16191,-1.61134 0.50341,0.50341 -1.74182,2.221 -2.83674,2.92731 -2.83674,1.82992 z m -86.66667,-25.33333 c 0,-0.27687 1.05,-1.32687 2.33333,-2.33334 2.11475,-1.65849 2.16191,-1.61133 0.50341,0.50342 -1.74182,2.221 -2.83674,2.9273 -2.83674,1.82992 z m -277.66668,-4.37963 c 0.91667,-0.36988 2.41667,-0.36988 3.33333,0 0.91667,0.36988 0.16667,0.67252 -1.66666,0.67252 -1.83334,0 -2.58334,-0.30264 -1.66667,-0.67252 z m 210.66668,0 c 0.91666,-0.36988 2.41666,-0.36988 3.33333,0 0.91667,0.36988 0.16667,0.67252 -1.66667,0.67252 -1.83333,0 -2.58333,-0.30264 -1.66666,-0.67252 z m -220.89475,-10.5614 c 0.064,-1.55327 0.37992,-1.8692 0.80555,-0.80556 0.38516,0.96249 0.3378,2.1125 -0.1052,2.55556 -0.44307,0.44305 -0.75819,-0.34446 -0.70029,-1.75 z m 233.33335,0 c 0.064,-1.55327 0.37992,-1.8692 0.80554,-0.80556 0.38516,0.96249 0.3378,2.1125 -0.1052,2.55556 -0.44305,0.44305 -0.75818,-0.34446 -0.70029,-1.75 z m -206.66668,-8 c 0.064,-1.55327 0.37992,-1.8692 0.80555,-0.80556 0.38516,0.96249 0.3378,2.1125 -0.1052,2.55556 -0.44307,0.44305 -0.75819,-0.34446 -0.70029,-1.75 z m 180.00001,0 c 0.064,-1.55327 0.37992,-1.8692 0.80554,-0.80556 0.38516,0.96249 0.3378,2.1125 -0.1052,2.55556 -0.44305,0.44305 -0.75818,-0.34446 -0.70029,-1.75 z M 157.08334,457.75587 c 0.96249,-0.38516 2.11249,-0.3378 2.55556,0.1052 0.44305,0.44305 -0.34445,0.75819 -1.75,0.70029 -1.55327,-0.064 -1.8692,-0.37992 -0.80556,-0.80554 z m 366.66668,0 c 0.96249,-0.38516 2.1125,-0.3378 2.55556,0.1052 0.44305,0.44305 -0.34446,0.75819 -1.75,0.70029 -1.55327,-0.064 -1.8692,-0.37992 -0.80556,-0.80554 z M 165.08334,431.0892 c 0.96249,-0.38516 2.11249,-0.3378 2.55556,0.1052 0.44305,0.44305 -0.34445,0.75819 -1.75,0.70029 -1.55327,-0.064 -1.8692,-0.37992 -0.80556,-0.80554 z m 350.66668,0 c 0.96249,-0.38516 2.1125,-0.3378 2.55556,0.1052 0.44305,0.44305 -0.34446,0.75819 -1.75,0.70029 -1.55327,-0.064 -1.8692,-0.37992 -0.80556,-0.80554 z M 339.66668,372.45031 c 0.91666,-0.36988 2.41667,-0.36988 3.33333,0 0.91667,0.36988 0.16667,0.67252 -1.66667,0.67252 -1.83333,0 -2.58333,-0.30264 -1.66666,-0.67252 z M 0.21052633,366.66668 c 0,-1.83333 0.30263158,-2.58333 0.67251463,-1.66667 0.36988304,0.91667 0.36988304,2.41667 0,3.33334 -0.36988305,0.91666 -0.67251463,0.16666 -0.67251463,-1.66667 z M 601.43862,365.88891 c 0.064,-1.55327 0.37992,-1.8692 0.80555,-0.80556 0.38516,0.96249 0.3378,2.1125 -0.1052,2.55556 -0.44306,0.44305 -0.75819,-0.34446 -0.7003,-1.75 z m 80,0 c 0.064,-1.55327 0.37992,-1.8692 0.80555,-0.80556 0.38516,0.96249 0.3378,2.1125 -0.1052,2.55556 -0.44305,0.44305 -0.75819,-0.34446 -0.70029,-1.75 z m -371.84534,-23.8889 c 0.0272,-2.2 0.326,-2.93859 0.66405,-1.64129 0.33805,1.29729 0.31583,3.09729 -0.0495,4 -0.36524,0.90271 -0.64182,-0.15871 -0.61465,-2.35871 z m 62.61725,-0.66667 c 0,-1.83333 0.30264,-2.58333 0.67252,-1.66666 0.36988,0.91666 0.36988,2.41667 0,3.33333 -0.36988,0.91667 -0.67252,0.16667 -0.67252,-1.66667 z m 309.33335,-25.33333 c 0,-1.83333 0.30264,-2.58333 0.67252,-1.66667 0.36988,0.91667 0.36988,2.41667 0,3.33334 -0.36988,0.91666 -0.67252,0.16666 -0.67252,-1.66667 z M 0.10526316,315.22224 c 0.0639786,-1.55327 0.37992042,-1.8692 0.80555559,-0.80556 0.38516085,0.96249 0.33779235,2.11249 -0.1052632,2.55556 -0.44305558,0.44305 -0.75818716,-0.34446 -0.70029239,-1.75 z M 165.08334,251.0892 c 0.96249,-0.38516 2.11249,-0.3378 2.55556,0.1052 0.44305,0.44305 -0.34445,0.75818 -1.75,0.70029 -1.55327,-0.064 -1.8692,-0.37992 -0.80556,-0.80555 z m 350.66668,0 c 0.96249,-0.38516 2.1125,-0.3378 2.55556,0.1052 0.44305,0.44305 -0.34446,0.75818 -1.75,0.70029 -1.55327,-0.064 -1.8692,-0.37992 -0.80556,-0.80555 z M 142.66667,170.16326 c 0,-0.27687 1.05,-1.32687 2.33333,-2.33333 2.11475,-1.6585 2.16191,-1.61134 0.50342,0.50341 -1.74183,2.221 -2.83675,2.92731 -2.83675,1.82992 z m 394.4966,-1.82992 c -1.65849,-2.11475 -1.61133,-2.16191 0.50342,-0.50341 2.221,1.74182 2.9273,2.83674 1.82992,2.83674 -0.27687,0 -1.32687,-1.05 -2.33334,-2.33333 z M 250.77194,165.8889 c 0.064,-1.55327 0.37992,-1.8692 0.80555,-0.80556 0.38516,0.96249 0.3378,2.11249 -0.1052,2.55556 -0.44307,0.44305 -0.75819,-0.34445 -0.70029,-1.75 z m 180.00001,0 c 0.064,-1.55327 0.37992,-1.8692 0.80554,-0.80556 0.38516,0.96249 0.3378,2.11249 -0.1052,2.55556 -0.44305,0.44305 -0.75818,-0.34445 -0.70029,-1.75 z m -206.66668,-8 c 0.064,-1.55327 0.37992,-1.8692 0.80555,-0.80556 0.38516,0.96249 0.3378,2.11249 -0.1052,2.55556 -0.44307,0.44305 -0.75819,-0.34445 -0.70029,-1.75 z m 233.33335,0 c 0.064,-1.55327 0.37992,-1.8692 0.80554,-0.80556 0.38516,0.96249 0.3378,2.11249 -0.1052,2.55556 -0.44305,0.44305 -0.75818,-0.34445 -0.70029,-1.75 z M 166.66667,146.16326 c 0,-0.27687 1.05,-1.32687 2.33334,-2.33334 2.11474,-1.65849 2.1619,-1.61133 0.50341,0.50342 -1.74183,2.221 -2.83675,2.92731 -2.83675,1.82992 z M 80.000003,120.82993 c 0,-0.27687 1.05,-1.32687 2.333333,-2.33333 2.114742,-1.6585 2.161902,-1.61134 0.503407,0.5034 -1.741826,2.221 -2.83674,2.92731 -2.83674,1.82993 z M 599.82994,119 c -1.65849,-2.11474 -1.61133,-2.1619 0.50341,-0.5034 2.221,1.74182 2.92731,2.83674 1.82992,2.83674 -0.27686,0 -1.32686,-1.05 -2.33333,-2.33334 z m -17.8612,-19.33333 -10.63539,-11 11,10.635387 c 10.21647,9.877823 11.60786,11.364613 10.63539,11.364613 -0.20053,0 -5.15053,-4.95 -11,-11 z M 99.333337,100 c 5.094003,-5.13333 9.561813,-9.33333 9.928483,-9.33333 0.36667,0 -3.50115,4.2 -8.59515,9.33333 -5.093999,5.13334 -9.561815,9.33334 -9.928482,9.33334 -0.366666,0 3.50115,-4.2 8.595149,-9.33334 z M 117.33334,83.496596 c 0,-0.276874 1.05,-1.326875 2.33333,-2.333333 2.11474,-1.658495 2.1619,-1.611335 0.50341,0.503406 -1.74183,2.220998 -2.83674,2.927306 -2.83674,1.829927 z m 445.16327,-1.829927 c -1.6585,-2.114741 -1.61134,-2.161901 0.50341,-0.503406 2.221,1.741825 2.92731,2.83674 1.82992,2.83674 -0.27687,0 -1.32687,-1.05 -2.33333,-2.333334 z M 314.33334,0.45029242 c 0.91667,-0.36988306 2.41667,-0.36988306 3.33334,0 0.91666,0.36988305 0.16666,0.67251468 -1.66667,0.67251468 -1.83333,0 -2.58333,-0.30263163 -1.66667,-0.67251468 z m 52.08334,-0.0277777 c 0.96249,-0.38516083 2.11251,-0.3377924 2.55556,0.1052632 0.44305,0.44305558 -0.34445,0.75818708 -1.75,0.70029238 -1.55327,-0.063978 -1.8692,-0.37992036 -0.80556,-0.80555558 z"
         id="path213" />
      <path
         style="fill:#93fdca;stroke-width:1.33333"
         d="m 319.75001,681.75588 c 0.96249,-0.38516 2.11249,-0.3378 2.55556,0.1052 0.44305,0.44305 -0.34445,0.75818 -1.75,0.70029 -1.55327,-0.064 -1.8692,-0.37992 -0.80556,-0.80555 z m 9.58333,-21.40464 C 250.45565,657.86297 173.77707,624.33213 116.61932,567.33335 90.690332,541.47649 73.212208,517.70886 57.594413,487.06835 33.36068,439.52426 22.588475,394.96225 22.526289,342.00001 22.463866,288.83641 32.839344,244.62478 56.236442,198.35547 81.664364,148.07007 118.98402,105.92462 165.33334,75.151287 c 52.90267,-35.124391 111.47794,-52.636216 176,-52.61745 37.33777,0.0108 65.38723,4.367817 99.14688,15.400611 80.79698,26.404792 147.03299,83.477012 185.77531,160.073182 23.61779,46.69395 33.82813,89.95398 33.82813,143.32571 0,53.70347 -10.61966,97.88101 -35.05169,145.81408 -15.3725,30.15921 -33.35687,54.72932 -58.26307,79.59856 -63.70776,63.61319 -147.01941,96.45751 -237.43556,93.60526 z m 45.19602,-37.0995 C 468.4098,612.32842 551.42342,554.32871 594.44166,469.60408 635.1364,389.45559 635.61718,296.366 595.75258,215.78089 535.50135,93.984819 398.21661,31.966961 267.03688,67.284828 209.91563,82.663729 157.25018,117.258 119.80011,164.00001 105.78628,181.49089 97.271451,194.92358 86.773948,216.10097 47.581414,295.16696 47.581166,387.49465 86.773274,466.56572 140.50227,574.96533 254.7714,637.186 374.52936,623.25174 Z m -37.52935,-20.21625 c 2.38333,-0.29576 6.28334,-0.29576 8.66667,0 2.38333,0.29577 0.43333,0.53777 -4.33334,0.53777 -4.76666,0 -6.71666,-0.242 -4.33333,-0.53777 z m 2.66667,-70.58518 c 0.91666,-0.36988 2.41667,-0.36988 3.33333,0 0.91667,0.36988 0.16667,0.67252 -1.66667,0.67252 -1.83333,0 -2.58333,-0.30264 -1.66666,-0.67252 z M 318.4966,363.00001 c -1.6585,-2.11474 -1.61134,-2.1619 0.50341,-0.50341 2.221,1.74183 2.92731,2.83675 1.82992,2.83675 -0.27687,0 -1.32687,-1.05 -2.33333,-2.33334 z M 79.114944,341.33334 c 0,-5.5 0.235357,-7.75 0.523016,-5 0.28766,2.75 0.28766,7.25001 0,10.00001 -0.287659,2.75 -0.523016,0.5 -0.523016,-5.00001 z m 256.157796,6.06061 c -1.8,-1.8 -3.27273,-4.52727 -3.27273,-6.06061 0,-1.53333 1.47273,-4.2606 3.27273,-6.0606 1.8,-1.8 4.52727,-3.27273 6.0606,-3.27273 3.59734,0 9.33334,5.736 9.33334,9.33333 0,3.59734 -5.736,9.33334 -9.33334,9.33334 -1.53333,0 -4.2606,-1.47273 -6.0606,-3.27273 z m 267.82071,-6.06061 c 0,-4.76666 0.242,-6.71666 0.53777,-4.33333 0.29576,2.38333 0.29576,6.28334 0,8.66667 -0.29577,2.38333 -0.53777,0.43333 -0.53777,-4.33334 z m -453.65484,-0.77777 c 0.064,-1.55327 0.37992,-1.8692 0.80554,-0.80556 0.38516,0.96249 0.3378,2.11251 -0.1052,2.55556 -0.44306,0.44306 -0.75818,-0.34445 -0.70029,-1.75 z M 339.66668,149.78363 c 0.91666,-0.36988 2.41667,-0.36988 3.33333,0 0.91667,0.36988 0.16667,0.67252 -1.66667,0.67252 -1.83333,0 -2.58333,-0.30264 -1.66666,-0.67252 z m -3.33334,-70.754918 c 2.75,-0.28766 7.25001,-0.28766 10.00001,0 2.75,0.287659 0.5,0.523016 -5.00001,0.523016 -5.5,0 -7.75,-0.235357 -5,-0.523016 z M 681.43862,361.88891 c 0.064,-1.55327 0.37992,-1.8692 0.80555,-0.80556 0.38516,0.96249 0.3378,2.1125 -0.1052,2.55556 -0.44305,0.44305 -0.75819,-0.34446 -0.70029,-1.75 z M 0.10526316,319.22224 c 0.0639786,-1.55327 0.37992042,-1.8692 0.80555559,-0.80556 0.38516085,0.96249 0.33779235,2.11249 -0.1052632,2.55556 -0.44305558,0.44305 -0.75818716,-0.34446 -0.70029239,-1.75 z M 362.41668,0.42251463 c 0.96249,-0.38516083 2.11251,-0.3377924 2.55556,0.1052632 0.44305,0.44305558 -0.34445,0.75818717 -1.75,0.70029247 -1.55327,-0.063979 -1.8692,-0.37992046 -0.80556,-0.80555567 z"
         id="path211" />
      <path
         style="fill:#7cfdc1;stroke-width:1.33333"
         d="m 332.33334,660.41425 c 1.28334,-0.33536 3.38334,-0.33536 4.66667,0 1.28333,0.33537 0.23333,0.60977 -2.33333,0.60977 -2.56667,0 -3.61667,-0.2744 -2.33334,-0.60977 z m 13.33334,0 c 1.28333,-0.33536 3.38333,-0.33536 4.66667,0 1.28333,0.33537 0.23333,0.60977 -2.33334,0.60977 -2.56666,0 -3.61666,-0.2744 -2.33333,-0.60977 z m -15.25,-57.32504 c 0.96249,-0.38516 2.11249,-0.3378 2.55556,0.1052 0.44305,0.44305 -0.34446,0.75818 -1.75,0.70029 -1.55327,-0.064 -1.8692,-0.37992 -0.80556,-0.80555 z m 20,0 c 0.96249,-0.38516 2.11251,-0.3378 2.55556,0.1052 0.44305,0.44305 -0.34445,0.75818 -1.75,0.70029 -1.55327,-0.064 -1.8692,-0.37992 -0.80556,-0.80555 z M 140.58279,542.33335 136.66667,538.00002 141,541.91614 c 2.38334,2.15387 4.33334,4.10387 4.33334,4.33333 0,1.03008 -1.10018,0.1232 -4.75055,-3.91612 z m 400.75056,-0.33333 c 2.48771,-2.56667 4.82311,-4.66667 5.18978,-4.66667 0.36666,0 -1.36874,2.1 -3.85644,4.66667 -2.48771,2.56667 -4.82311,4.66667 -5.18978,4.66667 -0.36666,0 1.36874,-2.1 3.85644,-4.66667 z m -15.33333,-15.33334 c 1.32732,-1.46666 2.7133,-2.66666 3.07997,-2.66666 0.36667,0 -0.41932,1.2 -1.74664,2.66666 -1.32732,1.46667 -2.71331,2.66667 -3.07997,2.66667 -0.36667,0 0.41932,-1.2 1.74664,-2.66667 z M 78.771932,352.55557 c 0.06397,-1.55326 0.379921,-1.8692 0.805556,-0.80556 0.385161,0.9625 0.337792,2.11251 -0.105267,2.55556 -0.443056,0.44306 -0.758188,-0.34445 -0.700293,-1.75 z m -57.102354,-3.88889 c 0.0148,-2.93333 0.287847,-3.97633 0.606771,-2.31779 0.318924,1.65855 0.306816,4.05855 -0.02691,5.33334 -0.333724,1.27478 -0.594663,-0.0822 -0.579864,-3.01555 z m 581.102372,2.55556 c 0.064,-1.55327 0.37992,-1.8692 0.80555,-0.80556 0.38516,0.96249 0.3378,2.11251 -0.1052,2.55556 -0.44305,0.44305 -0.75819,-0.34445 -0.70029,-1.75 z m 57.56431,-3.88889 c 0.0148,-2.93334 0.28786,-3.97634 0.60678,-2.31779 0.31892,1.65855 0.30681,4.05855 -0.0269,5.33333 -0.33372,1.27479 -0.59466,-0.0823 -0.57986,-3.01554 z m 0,-12.00001 c 0.0148,-2.93333 0.28786,-3.97633 0.60678,-2.31778 0.31892,1.65854 0.30681,4.05854 -0.0269,5.33333 -0.33372,1.27479 -0.59466,-0.0823 -0.57986,-3.01555 z M 21.669578,334.00001 c 0.0148,-2.93333 0.287847,-3.97633 0.606771,-2.31779 0.318924,1.65855 0.306816,4.05855 -0.02691,5.33334 -0.333724,1.27478 -0.594663,-0.0822 -0.579864,-3.01555 z m 581.102372,-2.77777 c 0.064,-1.55327 0.37992,-1.8692 0.80555,-0.80556 0.38516,0.96249 0.3378,2.11249 -0.1052,2.55556 -0.44305,0.44305 -0.75819,-0.34446 -0.70029,-1.75 z M 78.771932,329.8889 c 0.06397,-1.55326 0.379921,-1.8692 0.805556,-0.80556 0.385161,0.9625 0.337792,2.1125 -0.105267,2.55556 -0.443056,0.44306 -0.758188,-0.34445 -0.700293,-1.75 z M 153.33334,158.16326 c 0,-0.27687 1.05,-1.32687 2.33333,-2.33333 2.11475,-1.6585 2.16191,-1.61134 0.50342,0.50341 -1.74183,2.221 -2.83675,2.92731 -2.83675,1.82992 z m -14,-16.82992 C 142.19766,138.4 144.8412,136 145.20787,136 c 0.36667,0 -1.67688,2.4 -4.5412,5.33334 -2.86432,2.93333 -5.50787,5.33333 -5.87453,5.33333 -0.36667,0 1.67688,-2.4 4.5412,-5.33333 z m 401.28323,-1.66667 -6.61655,-7 7,6.61655 c 3.85,3.63909 7,6.78909 7,7 0,0.99492 -1.23524,-0.112 -7.38345,-6.61655 z M 331.00001,21.747566 c 1.28333,-0.335369 3.38333,-0.335369 4.66667,0 1.28333,0.335371 0.23333,0.609764 -2.33334,0.609764 -2.56666,0 -3.61666,-0.274393 -2.33333,-0.609764 z m 15.34888,-0.02391 c 1.65855,-0.318924 4.05855,-0.306816 5.33334,0.02691 1.27478,0.333723 -0.0823,0.594661 -3.01555,0.579863 -2.93333,-0.0148 -3.97633,-0.287847 -2.31779,-0.606771 z"
         id="path209" />
      <path
         style="fill:#6cfeb9;stroke-width:1.33333"
         d="m 325.69205,660.40937 c 1.29729,-0.33805 3.09729,-0.31583 4,0.0495 0.90271,0.36524 -0.15871,0.64182 -2.35871,0.61465 -2.2,-0.0272 -2.93858,-0.326 -1.64129,-0.66405 z m 28,0 c 1.2973,-0.33805 3.0973,-0.31583 4,0.0495 0.90271,0.36524 -0.1587,0.64182 -2.3587,0.61465 -2.2,-0.0272 -2.93859,-0.326 -1.6413,-0.66405 z m -28.69204,-35.95906 c 0.91667,-0.36988 2.41667,-0.36988 3.33333,0 0.91667,0.36988 0.16667,0.67252 -1.66666,0.67252 -1.83334,0 -2.58334,-0.30264 -1.66667,-0.67252 z m 29.33334,0 c 0.91666,-0.36988 2.41666,-0.36988 3.33333,0 0.91667,0.36988 0.16667,0.67252 -1.66667,0.67252 -1.83333,0 -2.58333,-0.30264 -1.66666,-0.67252 z m 211,-55.62037 c 0,-0.27687 1.05,-1.32687 2.33334,-2.33333 2.11474,-1.6585 2.1619,-1.61134 0.50341,0.50341 -1.74183,2.221 -2.83675,2.92731 -2.83675,1.82992 z M 158.49659,529.66668 c -1.65849,-2.11474 -1.61133,-2.1619 0.50342,-0.50341 1.28333,1.00647 2.33333,2.05647 2.33333,2.33333 0,1.09739 -1.09492,0.39108 -2.83675,-1.82992 z m -6.66666,-6.66666 c -1.6585,-2.11475 -1.61134,-2.16191 0.50341,-0.50342 1.28333,1.00647 2.33333,2.05647 2.33333,2.33334 0,1.09738 -1.09492,0.39108 -2.83674,-1.82992 z M 21.543861,356.00001 c 0,-1.83333 0.30263,-2.58333 0.672514,-1.66666 0.369883,0.91666 0.369883,2.41666 0,3.33333 -0.369884,0.91667 -0.672514,0.16667 -0.672514,-1.66667 z m 35.894737,0.55556 c 0.06397,-1.55326 0.379921,-1.8692 0.805556,-0.80556 0.385161,0.9625 0.337792,2.11251 -0.105267,2.55556 -0.443056,0.44306 -0.758188,-0.34445 -0.700293,-1.75 z m 566.666692,0 c 0.064,-1.55326 0.37992,-1.8692 0.80554,-0.80556 0.38516,0.9625 0.3378,2.11251 -0.1052,2.55556 -0.44305,0.44306 -0.75818,-0.34445 -0.70029,-1.75 z m 36.15467,-1.22222 c 0.0272,-2.2 0.326,-2.93859 0.66405,-1.6413 0.33805,1.2973 0.31583,3.0973 -0.0495,4 -0.36524,0.90271 -0.64182,-0.1587 -0.61465,-2.3587 z m 0,-28.00001 c 0.0272,-2.2 0.326,-2.93858 0.66405,-1.64129 0.33805,1.29729 0.31583,3.09729 -0.0495,4 -0.36524,0.90271 -0.64182,-0.15871 -0.61465,-2.35871 z M 21.543861,326.66668 c 0,-1.83334 0.30263,-2.58334 0.672514,-1.66667 0.369883,0.91667 0.369883,2.41667 0,3.33333 -0.369884,0.91667 -0.672514,0.16667 -0.672514,-1.66666 z m 35.894737,-0.77778 c 0.06397,-1.55326 0.379921,-1.8692 0.805556,-0.80556 0.385161,0.9625 0.337792,2.1125 -0.105267,2.55556 -0.443056,0.44306 -0.758188,-0.34445 -0.700293,-1.75 z m 566.666692,0 c 0.064,-1.55326 0.37992,-1.8692 0.80554,-0.80556 0.38516,0.9625 0.3378,2.1125 -0.1052,2.55556 -0.44305,0.44306 -0.75818,-0.34445 -0.70029,-1.75 z M 330.8772,205.33334 c 0,-1.83333 0.30264,-2.58333 0.67252,-1.66667 0.36988,0.91667 0.36988,2.41667 0,3.33334 -0.36988,0.91666 -0.67252,0.16666 -0.67252,-1.66667 z m 20,0 c 0,-1.83333 0.30264,-2.58333 0.67252,-1.66667 0.36988,0.91667 0.36988,2.41667 0,3.33334 -0.36988,0.91666 -0.67252,0.16666 -0.67252,-1.66667 z m 179.6194,-45 c -1.65849,-2.11475 -1.61133,-2.16191 0.50342,-0.50341 1.28333,1.00646 2.33333,2.05646 2.33333,2.33333 0,1.09739 -1.09492,0.39108 -2.83675,-1.82992 z m -373.16326,-6.17008 c 0,-0.27687 1.05,-1.32687 2.33333,-2.33333 2.11475,-1.6585 2.16191,-1.61134 0.50342,0.50341 -1.74183,2.221 -2.83675,2.92731 -2.83675,1.82992 z m -44,-37.33333 c 0,-0.27687 1.05,-1.32687 2.33333,-2.33333 2.11474,-1.6585 2.1619,-1.61134 0.50341,0.5034 -1.74183,2.221 -2.83674,2.92731 -2.83674,1.82993 z m 452.54,-2.49659 -2.53999,-3 3,2.53998 c 2.81926,2.38696 3.60699,3.46002 2.53999,3.46002 -0.25301,0 -1.60301,-1.35 -3,-3 z M 325.00001,57.783627 c 0.91667,-0.369882 2.41667,-0.369882 3.33333,0 0.91667,0.369884 0.16667,0.672515 -1.66666,0.672515 -1.83334,0 -2.58334,-0.302631 -1.66667,-0.672515 z m 29.33334,0 c 0.91666,-0.369882 2.41666,-0.369882 3.33333,0 0.91667,0.369884 0.16667,0.672515 -1.66667,0.672515 -1.83333,0 -2.58333,-0.302631 -1.66666,-0.672515 z M 325.00001,21.783626 c 0.91667,-0.369883 2.41667,-0.369883 3.33333,0 0.91667,0.369884 0.16667,0.672515 -1.66666,0.672515 -1.83334,0 -2.58334,-0.302631 -1.66667,-0.672515 z m 29.33334,0 c 0.91666,-0.369883 2.41666,-0.369883 3.33333,0 0.91667,0.369884 0.16667,0.672515 -1.66667,0.672515 -1.83333,0 -2.58333,-0.302631 -1.66666,-0.672515 z"
         id="path207" />
      <path
         style="fill:#4ffdac;stroke-width:1.33333"
         d="m 327.66668,681.78365 c 0.91666,-0.36988 2.41666,-0.36988 3.33333,0 0.91667,0.36988 0.16667,0.67252 -1.66667,0.67252 -1.83333,0 -2.58333,-0.30264 -1.66666,-0.67252 z m 24,0 c 0.91667,-0.36988 2.41667,-0.36988 3.33333,0 0.91667,0.36988 0.16667,0.67252 -1.66666,0.67252 -1.83334,0 -2.58334,-0.30264 -1.66667,-0.67252 z m -32,-21.33333 c 0.91666,-0.36988 2.41666,-0.36988 3.33333,0 0.91667,0.36988 0.16667,0.67252 -1.66667,0.67252 -1.83333,0 -2.58333,-0.30264 -1.66666,-0.67252 z m 40,0 c 0.91667,-0.36988 2.41667,-0.36988 3.33333,0 0.91667,0.36988 0.16667,0.67252 -1.66666,0.67252 -1.83334,0 -2.58334,-0.30264 -1.66667,-0.67252 z m -54.58334,-1.36111 c 0.9625,-0.38516 2.1125,-0.3378 2.55556,0.1052 0.44306,0.44305 -0.34445,0.75819 -1.75,0.70029 -1.55326,-0.064 -1.8692,-0.37992 -0.80556,-0.80554 z m 70.66667,0 c 0.9625,-0.38516 2.11251,-0.3378 2.55556,0.1052 0.44306,0.44305 -0.34445,0.75819 -1.75,0.70029 -1.55326,-0.064 -1.8692,-0.37992 -0.80556,-0.80554 z m -40.75,-34.73591 c 3.48333,-0.27467 9.18334,-0.27467 12.66667,0 3.48333,0.27467 0.63333,0.49939 -6.33334,0.49939 -6.96666,0 -9.81666,-0.22472 -6.33333,-0.49939 z m -23.25,-1.26409 c 0.96249,-0.38516 2.11249,-0.3378 2.55556,0.1052 0.44305,0.44305 -0.34445,0.75818 -1.75,0.70029 -1.55327,-0.064 -1.8692,-0.37992 -0.80556,-0.80555 z m 57.33334,0 c 0.96249,-0.38516 2.1125,-0.3378 2.55556,0.1052 0.44305,0.44305 -0.34446,0.75818 -1.75,0.70029 -1.55327,-0.064 -1.8692,-0.37992 -0.80556,-0.80555 z m -68.00001,-1.33334 c 0.9625,-0.38516 2.1125,-0.3378 2.55556,0.1052 0.44306,0.44306 -0.34445,0.75819 -1.75,0.7003 -1.55326,-0.064 -1.8692,-0.37992 -0.80556,-0.80555 z m 78.66667,0 c 0.9625,-0.38516 2.11251,-0.3378 2.55556,0.1052 0.44306,0.44306 -0.34445,0.75819 -1.75,0.7003 -1.55326,-0.064 -1.8692,-0.37992 -0.80556,-0.80555 z M 110.4966,592.33335 c -1.6585,-2.11474 -1.61134,-2.1619 0.5034,-0.50341 1.28334,1.00647 2.33334,2.05647 2.33334,2.33333 0,1.09739 -1.09492,0.39108 -2.83674,-1.82992 z m 9.43163,-20 -4.59489,-5 5,4.5949 c 4.65389,4.27681 5.61305,5.4051 4.59489,5.4051 -0.22281,0 -2.47281,-2.25 -5,-5 z m 437.40512,4.58279 c 0,-0.22947 1.95,-2.17947 4.33334,-4.33333 l 4.33333,-3.91612 -3.91612,4.33333 c -3.65037,4.03928 -4.75055,4.9462 -4.75055,3.91612 z M 89.163263,571.00002 c -1.658495,-2.11475 -1.611335,-2.16191 0.503407,-0.50341 1.283333,1.00646 2.333333,2.05646 2.333333,2.33333 0,1.09739 -1.094915,0.39108 -2.83674,-1.82992 z m 20.098297,-9.33333 -4.59489,-5 5,4.59489 c 4.65389,4.27681 5.61305,5.40511 4.59489,5.40511 -0.22281,0 -2.47281,-2.25 -5,-5 z m 460.07179,3.24945 c 0,-0.22947 1.95,-2.17947 4.33334,-4.33333 l 4.33333,-3.91612 -3.91612,4.33333 c -3.65037,4.03928 -4.75055,4.9462 -4.75055,3.91612 z m -41.33333,-10.75287 c 0,-0.27686 1.05,-1.32686 2.33333,-2.33333 2.11475,-1.65849 2.16191,-1.61133 0.50341,0.50341 -1.74182,2.221 -2.83674,2.92731 -2.83674,1.82992 z M 162.49659,533.66668 c -1.65849,-2.11474 -1.61133,-2.1619 0.50342,-0.50341 1.28333,1.00647 2.33333,2.05647 2.33333,2.33333 0,1.09739 -1.09492,0.39108 -2.83675,-1.82992 z m 354.83676,1.82992 c 0,-0.27686 1.05,-1.32686 2.33333,-2.33333 2.11475,-1.65849 2.16191,-1.61133 0.50342,0.50341 -1.74183,2.221 -2.83675,2.92731 -2.83675,1.82992 z m 33.33334,-4 c 0,-0.27686 1.05,-1.32686 2.33333,-2.33333 2.11475,-1.65849 2.16191,-1.61133 0.50341,0.50341 -1.74182,2.221 -2.83674,2.92731 -2.83674,1.82992 z M 147.82993,519.00002 c -1.6585,-2.11475 -1.61134,-2.16191 0.50341,-0.50342 1.28333,1.00647 2.33333,2.05647 2.33333,2.33334 0,1.09738 -1.09492,0.39108 -2.83674,-1.82992 z m 384.17009,1.82992 c 0,-0.27687 1.05,-1.32687 2.33333,-2.33334 2.11475,-1.65849 2.16191,-1.61133 0.50341,0.50342 -1.74182,2.221 -2.83674,2.9273 -2.83674,1.82992 z m -161.35335,-135.16326 -16.64666,-17 17,16.64665 c 15.79126,15.46304 17.60458,17.35335 16.64666,17.35335 -0.19434,0 -7.84434,-7.65 -17,-17 z m -346.541407,1.55556 c 0.06397,-1.55327 0.379922,-1.8692 0.805557,-0.80556 0.385161,0.96249 0.337792,2.11251 -0.105267,2.55556 -0.443056,0.44305 -0.758188,-0.34445 -0.700294,-1.75 z m 361.208067,-16.22223 -16.64665,-17 17,16.64666 c 15.79125,15.46304 17.60457,17.35334 16.64665,17.35334 -0.19433,0 -7.84433,-7.65 -17,-17 z m -325.208065,9.55556 c 0.06397,-1.55326 0.379921,-1.8692 0.805556,-0.80556 0.385161,0.9625 0.337792,2.11251 -0.105267,2.55556 -0.443056,0.44306 -0.758188,-0.34445 -0.700293,-1.75 z m 561.333355,0 c 0.064,-1.55326 0.37992,-1.8692 0.80555,-0.80556 0.38516,0.9625 0.3378,2.11251 -0.1052,2.55556 -0.44306,0.44306 -0.75819,-0.34445 -0.7003,-1.75 z m -598.66669,-4 c 0.06397,-1.55326 0.379921,-1.8692 0.805556,-0.80556 0.385161,0.9625 0.337792,2.11251 -0.105267,2.55556 -0.443056,0.44306 -0.758188,-0.34445 -0.700293,-1.75 z m 636.00003,0 c 0.064,-1.55326 0.37992,-1.8692 0.80554,-0.80556 0.38516,0.9625 0.3378,2.11251 -0.1052,2.55556 -0.44305,0.44306 -0.75818,-0.34445 -0.70029,-1.75 z M 58.771931,369.88891 c 0.06397,-1.55327 0.379922,-1.8692 0.805556,-0.80556 0.385162,0.96249 0.337792,2.1125 -0.105266,2.55556 -0.443056,0.44305 -0.758188,-0.34446 -0.700294,-1.75 z m 564.000019,0 c 0.064,-1.55327 0.37992,-1.8692 0.80555,-0.80556 0.38516,0.96249 0.3378,2.1125 -0.1052,2.55556 -0.44305,0.44305 -0.75819,-0.34446 -0.70029,-1.75 z M 21.543861,361.33335 c 0,-1.83334 0.30263,-2.58334 0.672514,-1.66667 0.369883,0.91667 0.369883,2.41667 0,3.33333 -0.369884,0.91667 -0.672514,0.16667 -0.672514,-1.66666 z m 638.666679,0 c 0,-1.83334 0.30264,-2.58334 0.67252,-1.66667 0.36988,0.91667 0.36988,2.41667 0,3.33333 -0.36988,0.91667 -0.67252,0.16667 -0.67252,-1.66666 z m -660.00001367,-8 c 0,-1.83334 0.30263158,-2.58334 0.67251463,-1.66667 0.36988304,0.91667 0.36988304,2.41667 0,3.33333 -0.36988305,0.91667 -0.67251463,0.16667 -0.67251463,-1.66666 z m 681.33335367,0 c 0,-1.83334 0.30264,-2.58334 0.67252,-1.66667 0.36988,0.91667 0.36988,2.41667 0,3.33333 -0.36988,0.91667 -0.67252,0.16667 -0.67252,-1.66666 z M 57.826622,341.33334 c 0,-7.7 0.220365,-10.85 0.489703,-7 0.269336,3.85 0.269336,10.15001 0,14.00001 -0.269338,3.85 -0.489703,0.7 -0.489703,-7.00001 z m 566.666678,0 c 0,-7.7 0.22037,-10.85 0.48971,-7 0.26933,3.85 0.26933,10.15001 0,14.00001 -0.26934,3.85 -0.48971,0.7 -0.48971,-7.00001 z m -624.28277367,-12 c 0,-1.83333 0.30263158,-2.58333 0.67251463,-1.66666 0.36988304,0.91666 0.36988304,2.41666 0,3.33333 -0.36988305,0.91667 -0.67251463,0.16667 -0.67251463,-1.66667 z m 681.33335367,0 c 0,-1.83333 0.30264,-2.58333 0.67252,-1.66666 0.36988,0.91666 0.36988,2.41666 0,3.33333 -0.36988,0.91667 -0.67252,0.16667 -0.67252,-1.66667 z M 21.593266,320.66668 c 0.02717,-2.2 0.325997,-2.93859 0.664056,-1.6413 0.338057,1.2973 0.315825,3.0973 -0.0494,4 -0.365236,0.90271 -0.641829,-0.1587 -0.614656,-2.3587 z m 638.617274,0.66666 c 0,-1.83333 0.30264,-2.58333 0.67252,-1.66666 0.36988,0.91666 0.36988,2.41666 0,3.33333 -0.36988,0.91667 -0.67252,0.16667 -0.67252,-1.66667 z M 58.771931,312.55557 c 0.06397,-1.55327 0.379922,-1.8692 0.805556,-0.80556 0.385162,0.96249 0.337792,2.11249 -0.105266,2.55556 -0.443056,0.44305 -0.758188,-0.34445 -0.700294,-1.75 z m 564.000019,0 c 0.064,-1.55327 0.37992,-1.8692 0.80555,-0.80556 0.38516,0.96249 0.3378,2.11249 -0.1052,2.55556 -0.44305,0.44305 -0.75819,-0.34445 -0.70029,-1.75 z M 22.77193,305.8889 c 0.06397,-1.55326 0.379921,-1.8692 0.805556,-0.80556 0.385161,0.9625 0.337792,2.1125 -0.105267,2.55556 -0.443056,0.44306 -0.758188,-0.34445 -0.700293,-1.75 z m 636.00003,0 c 0.064,-1.55326 0.37992,-1.8692 0.80554,-0.80556 0.38516,0.9625 0.3378,2.1125 -0.1052,2.55556 -0.44305,0.44306 -0.75818,-0.34445 -0.70029,-1.75 z m -37.33334,-4 c 0.064,-1.55326 0.37992,-1.8692 0.80555,-0.80556 0.38516,0.9625 0.3378,2.1125 -0.1052,2.55556 -0.44306,0.44306 -0.75819,-0.34445 -0.7003,-1.75 z m 36,-6.66666 c 0.064,-1.55327 0.37992,-1.8692 0.80555,-0.80556 0.38516,0.96249 0.3378,2.11249 -0.1052,2.55556 -0.44305,0.44305 -0.75819,-0.34446 -0.70029,-1.75 z M 331.09344,216.00001 c 0,-4.76667 0.242,-6.71667 0.53777,-4.33334 0.29576,2.38334 0.29576,6.28334 0,8.66667 -0.29577,2.38333 -0.53777,0.43333 -0.53777,-4.33333 z m 20,0 c 0,-4.76667 0.242,-6.71667 0.53777,-4.33334 0.29576,2.38334 0.29576,6.28334 0,8.66667 -0.29577,2.38333 -0.53777,0.43333 -0.53777,-4.33333 z M 534.4966,164.33334 c -1.65849,-2.11475 -1.61133,-2.16191 0.50342,-0.50341 2.221,1.74182 2.92731,2.83674 1.82992,2.83674 -0.27687,0 -1.32687,-1.05 -2.33334,-2.33333 z m -387.82993,0.49659 c 0,-0.27687 1.05,-1.32687 2.33334,-2.33334 2.11474,-1.65849 2.1619,-1.61133 0.50341,0.50342 -1.74183,2.221 -2.83675,2.9273 -2.83675,1.82992 z m 14.66667,-14.66667 c 0,-0.27687 1.05,-1.32687 2.33333,-2.33333 2.11475,-1.6585 2.16191,-1.61134 0.50342,0.50341 -1.74183,2.221 -2.83675,2.92731 -2.83675,1.82992 z m 356.54,-2.49659 -2.53999,-3 3,2.53999 c 2.81925,2.38696 3.60699,3.46001 2.53999,3.46001 -0.25302,0 -1.60302,-1.35 -3,-3 z M 108,122 c 2.48771,-2.56666 4.82312,-4.66666 5.18978,-4.66666 0.36667,0 -1.36873,2.1 -3.85644,4.66666 -2.48771,2.56667 -4.82312,4.66667 -5.18978,4.66667 -0.36667,0 1.36873,-2.1 3.85644,-4.66667 z m 465.26158,-0.33333 -4.59489,-5 5,4.59489 c 2.75,2.52719 5,4.77719 5,5 0,1.01816 -1.1283,0.059 -5.40511,-4.59489 z m -451.92824,-13 C 123.82105,106.1 126.15645,104 126.52312,104 c 0.36666,0 -1.36874,2.1 -3.85645,4.66667 -2.48771,2.56667 -4.82311,4.66667 -5.18978,4.66667 -0.36666,0 1.36874,-2.1 3.85645,-4.66667 z m 437.91613,-1 -3.91612,-4.33333 4.33334,3.91612 c 4.03928,3.65037 4.9462,4.75054 3.91612,4.75054 -0.22947,0 -2.17947,-1.95 -4.33334,-4.33333 z M 109.33334,91.496596 c 0,-0.276874 1.05,-1.326874 2.33333,-2.333333 2.11474,-1.658495 2.1619,-1.611335 0.50341,0.503407 -1.74183,2.220997 -2.83674,2.927305 -2.83674,1.829926 z m 191.75,-31.074079 c 0.9625,-0.385162 2.1125,-0.337792 2.55556,0.105266 0.44306,0.443056 -0.34445,0.758188 -1.75,0.700294 -1.55326,-0.06397 -1.8692,-0.379922 -0.80556,-0.805556 z m 10.66667,-1.333334 c 0.96249,-0.385161 2.11249,-0.337792 2.55556,0.105267 0.44305,0.443056 -0.34445,0.758188 -1.75,0.700293 -1.55327,-0.06397 -1.8692,-0.379921 -0.80556,-0.805556 z m 57.33334,0 c 0.96249,-0.385161 2.1125,-0.337792 2.55556,0.105267 0.44305,0.443056 -0.34446,0.758188 -1.75,0.700293 -1.55327,-0.06397 -1.8692,-0.379921 -0.80556,-0.805556 z m -34.08334,-1.402566 c 3.48333,-0.274666 9.18334,-0.274666 12.66667,0 3.48333,0.274664 0.63333,0.49939 -6.33334,0.49939 -6.96666,0 -9.81666,-0.224726 -6.33333,-0.49939 z M 294.41668,24.422516 c 0.96249,-0.385162 2.11249,-0.337793 2.55556,0.105266 0.44305,0.443056 -0.34446,0.758188 -1.75,0.700294 -1.55327,-0.06397 -1.8692,-0.379922 -0.80556,-0.805556 z m 92,0 c 0.96249,-0.385162 2.11251,-0.337793 2.55556,0.105266 0.44305,0.443056 -0.34445,0.758188 -1.75,0.700294 -1.55327,-0.06397 -1.8692,-0.379922 -0.80556,-0.805556 z m -81.33334,-1.333334 c 0.9625,-0.385161 2.1125,-0.337792 2.55556,0.105267 0.44306,0.443056 -0.34445,0.758188 -1.75,0.700293 -1.55326,-0.06397 -1.8692,-0.379921 -0.80556,-0.805556 z m 70.66667,0 c 0.9625,-0.385161 2.11251,-0.337792 2.55556,0.105267 0.44306,0.443056 -0.34445,0.758188 -1.75,0.700293 -1.55326,-0.06397 -1.8692,-0.379921 -0.80556,-0.805556 z m -56.08333,-1.305556 c 0.91666,-0.369883 2.41666,-0.369883 3.33333,0 0.91667,0.369884 0.16667,0.672515 -1.66667,0.672515 -1.83333,0 -2.58333,-0.302631 -1.66666,-0.672515 z m 40,0 c 0.91667,-0.369883 2.41667,-0.369883 3.33333,0 0.91667,0.369884 0.16667,0.672515 -1.66666,0.672515 -1.83334,0 -2.58334,-0.302631 -1.66667,-0.672515 z m -32,-21.33333358 c 0.91666,-0.36988306 2.41666,-0.36988306 3.33333,0 0.91667,0.36988305 0.16667,0.67251468 -1.66667,0.67251468 -1.83333,0 -2.58333,-0.30263163 -1.66666,-0.67251468 z m 24,0 c 0.91667,-0.36988306 2.41667,-0.36988306 3.33333,0 0.91667,0.36988305 0.16667,0.67251468 -1.66666,0.67251468 -1.83334,0 -2.58334,-0.30263163 -1.66667,-0.67251468 z"
         id="path205" />
      <path
         style="fill:#29e9a1;stroke-width:1.33333"
         d="m 333.66668,681.74758 c 1.28333,-0.33536 3.38333,-0.33536 4.66666,0 1.28334,0.33538 0.23334,0.60978 -2.33333,0.60978 -2.56667,0 -3.61667,-0.2744 -2.33333,-0.60978 z m 10.66667,0 c 1.28333,-0.33536 3.38333,-0.33536 4.66666,0 1.28334,0.33538 0.23334,0.60978 -2.33333,0.60978 -2.56667,0 -3.61667,-0.2744 -2.33333,-0.60978 z m -32.66667,-1.29726 c 0.91666,-0.36988 2.41666,-0.36988 3.33333,0 0.91667,0.36988 0.16667,0.67252 -1.66667,0.67252 -1.83333,0 -2.58333,-0.30264 -1.66666,-0.67252 z m 56,0 c 0.91667,-0.36988 2.41667,-0.36988 3.33333,0 0.91667,0.36988 0.16667,0.67252 -1.66666,0.67252 -1.83334,0 -2.58334,-0.30264 -1.66667,-0.67252 z m -69.25,-1.36111 c 0.96249,-0.38516 2.11249,-0.3378 2.55556,0.1052 0.44305,0.44305 -0.34446,0.75819 -1.75,0.70029 -1.55327,-0.064 -1.8692,-0.37992 -0.80556,-0.80554 z m 84,0 c 0.96249,-0.38516 2.11251,-0.3378 2.55556,0.1052 0.44305,0.44305 -0.34445,0.75819 -1.75,0.70029 -1.55327,-0.064 -1.8692,-0.37992 -0.80556,-0.80554 z m -66.66667,-18.66667 c 0.96249,-0.38516 2.11249,-0.3378 2.55556,0.1052 0.44305,0.44306 -0.34445,0.75819 -1.75,0.7003 -1.55327,-0.064 -1.8692,-0.37992 -0.80556,-0.80555 z m 49.33334,0 c 0.96249,-0.38516 2.1125,-0.3378 2.55556,0.1052 0.44305,0.44306 -0.34446,0.75819 -1.75,0.7003 -1.55327,-0.064 -1.8692,-0.37992 -0.80556,-0.80555 z m -48.08334,-37.36349 c 1.65,-0.31782 4.35,-0.31782 6,0 1.65,0.3178 0.3,0.57782 -3,0.57782 -3.3,0 -4.65,-0.26002 -3,-0.57782 z m 42.66667,0 c 1.65,-0.31782 4.35,-0.31782 6,0 1.65,0.3178 0.3,0.57782 -3,0.57782 -3.3,0 -4.65,-0.26002 -3,-0.57782 z m 214.33334,-33.7257 c 1.32732,-1.46666 2.71331,-2.66666 3.07997,-2.66666 0.36667,0 -0.41932,1.2 -1.74664,2.66666 -1.32732,1.46667 -2.7133,2.66667 -3.07997,2.66667 -0.36667,0 0.41932,-1.2 1.74664,-2.66667 z m -467.50342,-1 c -1.6585,-2.11474 -1.61134,-2.1619 0.5034,-0.50341 2.221,1.74183 2.92731,2.83675 1.82993,2.83675 -0.27687,0 -1.32687,-1.05 -2.33333,-2.33334 z M 93.163263,575.00002 c -1.658495,-2.11475 -1.611335,-2.16191 0.503407,-0.50341 1.283333,1.00646 2.333333,2.05646 2.333333,2.33333 0,1.09739 -1.094914,0.39108 -2.83674,-1.82992 z m 494.836757,0.49659 c 0,-0.27687 1.05,-1.32687 2.33333,-2.33334 2.11475,-1.65849 2.16191,-1.61133 0.50342,0.50342 -1.74183,2.221 -2.83675,2.9273 -2.83675,1.82992 z M 2.77193,383.22224 c 0.063979,-1.55327 0.3799204,-1.8692 0.8055555,-0.80556 0.3851608,0.96249 0.3377924,2.11251 -0.1052627,2.55556 -0.4430556,0.44305 -0.7581872,-0.34445 -0.7002928,-1.75 z m 676.00003,0 c 0.064,-1.55327 0.37992,-1.8692 0.80554,-0.80556 0.38516,0.96249 0.3378,2.11251 -0.1052,2.55556 -0.44305,0.44305 -0.75818,-0.34445 -0.70029,-1.75 z M 1.593265,370.00001 c 0.027173,-2.2 0.3259981,-2.93858 0.664056,-1.64129 0.3380579,1.29729 0.3158255,3.09729 -0.049405,4 -0.3652308,0.90271 -0.6418236,-0.15871 -0.614651,-2.35871 z m 678.617275,-0.66666 c 0,-1.83334 0.30264,-2.58334 0.67252,-1.66667 0.36988,0.91667 0.36988,2.41667 0,3.33333 -0.36988,0.91667 -0.67252,0.16667 -0.67252,-1.66666 z M 21.438597,365.88891 c 0.06397,-1.55327 0.379921,-1.8692 0.805556,-0.80556 0.385161,0.96249 0.337792,2.1125 -0.105267,2.55556 -0.443056,0.44305 -0.758188,-0.34446 -0.700293,-1.75 z m 37.591224,-3.22223 c 0,-3.3 0.260021,-4.65 0.577825,-3 0.317804,1.65 0.317804,4.35 0,6 -0.317804,1.65 -0.577825,0.3 -0.577825,-3 z m 564.000009,0 c 0,-3.3 0.26003,-4.65 0.57783,-3 0.31781,1.65 0.31781,4.35 0,6 -0.3178,1.65 -0.57783,0.3 -0.57783,-3 z m 37.07546,3.22223 c 0.064,-1.55327 0.37992,-1.8692 0.80555,-0.80556 0.38516,0.96249 0.3378,2.1125 -0.1052,2.55556 -0.44306,0.44305 -0.75819,-0.34446 -0.7003,-1.75 z M 0.30933694,346.66668 c 0,-2.56667 0.27439371,-3.61667 0.60976377,-2.33333 0.33537009,1.28333 0.33537009,3.38333 0,4.66666 -0.33537006,1.28334 -0.60976377,0.23334 -0.60976377,-2.33333 z m 681.33335306,0 c 0,-2.56667 0.2744,-3.61667 0.60977,-2.33333 0.33536,1.28333 0.33536,3.38333 0,4.66666 -0.33537,1.28334 -0.60977,0.23334 -0.60977,-2.33333 z M 0.30933694,336.00001 c 0,-2.56667 0.27439371,-3.61667 0.60976377,-2.33333 0.33537009,1.28333 0.33537009,3.38333 0,4.66666 -0.33537006,1.28334 -0.60976377,0.23334 -0.60976377,-2.33333 z m 681.33335306,0 c 0,-2.56667 0.2744,-3.61667 0.60977,-2.33333 0.33536,1.28333 0.33536,3.38333 0,4.66666 -0.33537,1.28334 -0.60977,0.23334 -0.60977,-2.33333 z m -622.612869,-16 c 0,-3.3 0.260021,-4.65 0.577825,-3 0.317804,1.65 0.317804,4.35 0,6 -0.317804,1.65 -0.577825,0.3 -0.577825,-3 z m 564.000009,0 c 0,-3.3 0.26003,-4.65 0.57783,-3 0.31781,1.65 0.31781,4.35 0,6 -0.3178,1.65 -0.57783,0.3 -0.57783,-3 z m 37.07546,-3.44444 c 0.064,-1.55327 0.37992,-1.8692 0.80555,-0.80556 0.38516,0.96249 0.3378,2.11249 -0.1052,2.55556 -0.44306,0.44305 -0.75819,-0.34445 -0.7003,-1.75 z M 1.593265,312.66668 c 0.027173,-2.2 0.3259981,-2.93859 0.664056,-1.6413 0.3380579,1.2973 0.3158255,3.0973 -0.049405,4 -0.3652308,0.90271 -0.6418236,-0.1587 -0.614651,-2.3587 z m 678.666695,0 c 0.0272,-2.2 0.326,-2.93859 0.66405,-1.6413 0.33805,1.2973 0.31583,3.0973 -0.0495,4 -0.36524,0.90271 -0.64182,-0.1587 -0.61465,-2.3587 z M 2.77193,299.22224 c 0.063979,-1.55327 0.3799204,-1.8692 0.8055555,-0.80556 0.3851608,0.96249 0.3377924,2.11249 -0.1052627,2.55556 -0.4430556,0.44305 -0.7581872,-0.34446 -0.7002928,-1.75 z m 676.00003,0 c 0.064,-1.55327 0.37992,-1.8692 0.80554,-0.80556 0.38516,0.96249 0.3378,2.11249 -0.1052,2.55556 -0.44305,0.44305 -0.75818,-0.34446 -0.70029,-1.75 z M 92.66667,108 c 1.327315,-1.46666 2.7133,-2.66666 3.079967,-2.66666 0.366666,0 -0.419319,1.2 -1.746634,2.66666 -1.327314,1.46667 -2.7133,2.66667 -3.079967,2.66667 -0.366666,0 0.419319,-1.2 1.746634,-2.66667 z m 12.66667,-12.503403 c 0,-0.276875 1.05,-1.326875 2.33333,-2.333334 2.11474,-1.658495 2.1619,-1.611335 0.50341,0.503407 -1.74183,2.220997 -2.83674,2.927305 -2.83674,1.829927 z m 467.20667,-3.829927 -2.53999,-3 3,2.539984 c 2.81925,2.386957 3.60699,3.460016 2.53999,3.460016 -0.25302,0 -1.60302,-1.35 -3,-3 z m -255.54,-32.607645 c 1.65,-0.317804 4.35,-0.317804 6,0 1.65,0.317804 0.3,0.577825 -3,0.577825 -3.3,0 -4.65,-0.260021 -3,-0.577825 z m 42.66667,0 c 1.65,-0.317804 4.35,-0.317804 6,0 1.65,0.317804 0.3,0.577825 -3,0.577825 -3.3,0 -4.65,-0.260021 -3,-0.577825 z M 315.75001,21.755849 c 0.96249,-0.385162 2.11249,-0.337792 2.55556,0.105266 0.44305,0.443056 -0.34445,0.758188 -1.75,0.700294 -1.55327,-0.06397 -1.8692,-0.379922 -0.80556,-0.805556 z m 49.33334,0 c 0.96249,-0.385162 2.1125,-0.337792 2.55556,0.105266 0.44305,0.443056 -0.34446,0.758188 -1.75,0.700294 -1.55327,-0.06397 -1.8692,-0.379922 -0.80556,-0.805556 z M 298.41668,3.0891814 c 0.96249,-0.3851608 2.11249,-0.3377924 2.55556,0.1052627 0.44305,0.4430556 -0.34446,0.7581872 -1.75,0.7002924 -1.55327,-0.063979 -1.8692,-0.3799204 -0.80556,-0.8055551 z m 84,0 c 0.96249,-0.3851608 2.11251,-0.3377924 2.55556,0.1052627 0.44305,0.4430556 -0.34445,0.7581872 -1.75,0.7002924 -1.55327,-0.063979 -1.8692,-0.3799204 -0.80556,-0.8055551 z m -71.3913,-1.3465023 c 1.2973,-0.3380579 3.0973,-0.3158255 4,0.049405 0.90271,0.3652308 -0.1587,0.6418236 -2.3587,0.6146506 -2.2,-0.027173 -2.93859,-0.3259981 -1.6413,-0.6640556 z m 57.33334,0 c 1.29729,-0.3380579 3.09729,-0.3158255 4,0.049405 0.90271,0.3652308 -0.15871,0.6418236 -2.35871,0.6146506 -2.2,-0.027173 -2.93858,-0.3259981 -1.64129,-0.6640556 z M 333.66668,0.41423267 c 1.28333,-0.33537008 3.38333,-0.33537008 4.66666,0 1.28334,0.33537006 0.23334,0.60976373 -2.33333,0.60976373 -2.56667,0 -3.61667,-0.27439367 -2.33333,-0.60976373 z m 10.66667,0 c 1.28333,-0.33537008 3.38333,-0.33537008 4.66666,0 1.28334,0.33537006 0.23334,0.60976373 -2.33333,0.60976373 -2.56667,0 -3.61667,-0.27439367 -2.33333,-0.60976373 z"
         id="path203" />
      <path
         style="fill:#22dba2;stroke-width:1.33333"
         d="M 324.00001,681.1653 C 275.05469,678.21514 233.11758,667.32053 191.33334,646.70052 55.364081,579.60137 -19.63027,432.26356 6.0415814,282.66668 30.13339,142.27714 142.27714,30.13339 282.66668,6.0415814 343.93243,-4.4720419 411.11707,2.3416607 466.78566,24.714481 577.16217,69.074037 656.76328,166.92638 676.6251,282.66668 c 25.66023,149.52911 -49.61701,297.42938 -185.29175,364.05029 -41.66241,20.45767 -84.52608,31.77707 -128.66667,33.97817 -8.43333,0.42054 -16.83333,0.92439 -18.66667,1.11967 -1.83333,0.19528 -10.83333,-0.0969 -20,-0.64951 z m 51.71922,-21.23797 c 61.93046,-6.72531 123.76031,-33.54527 173.04978,-75.06388 60.16981,-50.68361 100.73467,-125.89751 110.51755,-204.91772 2.36661,-19.11601 2.67514,-54.26467 0.64077,-72.99827 -6.73044,-61.97773 -33.53888,-123.75028 -75.1418,-173.1432 C 533.39232,72.787854 455.4881,31.401813 375.71923,22.739355 c -16.62936,-1.805857 -52.14241,-1.805857 -68.77177,0 C 245.06054,29.459933 183.11906,56.316721 134,97.72647 72.811388,149.31145 31.401565,227.18089 22.739355,306.94746 c -1.805857,16.62936 -1.805857,52.14241 0,68.77177 7.739021,71.26532 40.971363,140.09147 92.543995,191.66411 50.23607,50.23605 116.45182,82.92732 186.04999,91.8544 17.24746,2.21226 56.97301,2.58054 74.38589,0.68959 z m -56.38589,-36.73886 c -44.35917,-3.51953 -88.04712,-17.448 -124.55987,-39.71181 -19.65414,-11.98421 -36.77124,-25.48628 -53.4342,-42.14924 -37.20062,-37.20063 -62.241929,-81.57715 -74.483176,-131.99407 -6.262533,-25.79294 -7.368209,-36.44772 -7.264087,-70.00001 0.107214,-34.5498 1.99969,-48.87637 10.215353,-77.33333 27.865535,-96.5191 106.16081,-171.583499 203.52598,-195.127418 26.79532,-6.479389 35.43976,-7.388362 69.33334,-7.290479 35.276,0.10188 49.3294,1.944868 78,10.229083 105.11656,30.372864 183.67587,119.825264 200.22031,227.983024 2.82563,18.47223 3.14204,64.98499 0.56798,83.48994 -3.72452,26.77551 -15.11482,63.4545 -27.13576,87.38252 -26.3846,52.51931 -73.18487,99.31797 -125.65253,125.64819 -23.48398,11.78515 -56.93532,22.44283 -82.66667,26.33783 -13.23642,2.00361 -53.88621,3.54979 -66.66667,2.53577 z m 49.71922,-20.5988 c 59.77797,-6.51154 115.03494,-33.08746 157.6543,-75.82405 70.27985,-70.47318 94.99387,-172.38326 64.61239,-266.43392 -6.03107,-18.67011 -23.64004,-53.66799 -35.00296,-69.56845 -26.64445,-37.28439 -57.36658,-63.56137 -98.31627,-84.09099 -30.73118,-15.406693 -56.23285,-23.031676 -88.94746,-26.59524 -99.1762,-10.803148 -197.62469,37.48251 -250.70543,122.96256 -64.622779,104.06708 -49.195394,236.8956 37.59449,323.68549 56.41725,56.41724 134.96019,84.37747 213.11094,75.8646 z m -34.35582,-42.2972 c -2.54493,-2.06074 -2.93202,-3.68366 -2.93202,-12.29245 0,-8.60879 0.38709,-10.23171 2.93202,-12.29246 3.74928,-3.03598 9.52393,-3.03598 13.27321,0 2.54493,2.06075 2.93202,3.68367 2.93202,12.29246 0,8.60879 -0.38709,10.23171 -2.93202,12.29245 -1.61262,1.30582 -4.59908,2.37422 -6.63661,2.37422 -2.03752,0 -5.02398,-1.0684 -6.6366,-2.37422 z M 228.60607,531.39395 c -4.36249,-4.36248 -4.12629,-8.08927 1.0606,-16.73427 4.65347,-7.75594 8.38938,-9.74113 14.48289,-7.69592 3.41622,1.14662 6.51712,5.83883 6.51712,9.86156 0,3.00567 -6.51448,13.58356 -9.76977,15.86364 -4.12829,2.89158 -8.57253,2.42331 -12.29084,-1.29501 z m 211.84205,0.27273 c -3.89263,-4.35189 -8.44811,-12.31165 -8.44811,-14.7613 0,-4.09667 3.07403,-8.78599 6.51712,-9.94162 6.09351,-2.04521 9.82942,-0.06 14.48289,7.69592 5.18689,8.645 5.42309,12.37179 1.0606,16.73427 -4.17139,4.1714 -10.02046,4.28859 -13.6125,0.27273 z M 151.27274,454.06062 c -6.55651,-6.55651 -3.55277,-13.26375 8.92191,-19.92226 8.69405,-4.64056 16.22012,-0.27196 15.54068,9.0208 -0.37239,5.09322 -0.93759,5.81744 -7.67634,9.83611 -8.70584,5.19175 -12.42389,5.42772 -16.78625,1.06535 z m 363.33496,-1.06535 c -6.73875,-4.01867 -7.30395,-4.74289 -7.67634,-9.83611 -0.67944,-9.29276 6.84663,-13.66136 15.54068,-9.0208 12.47468,6.65851 15.47842,13.36575 8.92191,19.92226 -4.36236,4.36237 -8.08041,4.1264 -16.78625,-1.06535 z M 372.64744,386.6154 c -13.59604,-13.65143 -17.88673,-17.22311 -19.98076,-16.63252 -17.56091,4.95281 -32.71896,-1.56953 -39.32259,-16.92005 -5.68939,-13.22537 -1.03048,-28.74079 10.92891,-36.39615 l 6.24889,-4 0.1156,-36 c 0.18805,-58.5233 1.17933,-78.18361 4.09527,-81.22223 3.17353,-3.30707 10.02751,-3.30707 13.20104,0 2.91593,3.03862 3.90721,22.69893 4.09527,81.22223 l 0.1156,36 6.23725,4 c 10.60616,6.80181 15.53197,19.65601 12.35984,32.25369 l -1.56607,6.21939 17.4121,17.448 c 14.73822,14.76849 17.41222,18.07504 17.41222,21.53104 0,5.18293 -4.80476,9.88121 -10.10517,9.88121 -3.26912,0 -6.85699,-2.9356 -21.2474,-17.38461 z m -24.41908,-38.15537 c 3.08267,-2.78978 3.2138,-10.72647 0.23167,-14.0217 -2.78978,-3.08267 -10.72647,-3.2138 -14.0217,-0.23167 -3.08267,2.78978 -3.2138,10.72647 -0.23167,14.0217 2.78978,3.08267 10.72647,3.2138 14.0217,0.23167 z m -219.20829,2.4827 c -8.25009,-0.72005 -11.93126,-9.71879 -6.64586,-16.24599 2.06076,-2.54493 3.68367,-2.93202 12.29246,-2.93202 8.60879,0 10.23171,0.38709 12.29246,2.93202 3.02342,3.73378 3.04177,9.57539 0.0409,13.01787 -2.44292,2.80242 -9.12068,4.00135 -17.97993,3.22812 z m 413.33335,0 c -8.2501,-0.72005 -11.93127,-9.71879 -6.64586,-16.24599 2.06075,-2.54493 3.68367,-2.93202 12.29246,-2.93202 8.60879,0 10.23171,0.38709 12.29245,2.93202 3.02343,3.73378 3.04178,9.57539 0.0409,13.01787 -2.44292,2.80242 -9.12068,4.00135 -17.97994,3.22812 z M 158.36875,247.53042 c -11.22269,-6.90151 -13.37607,-12.64431 -7.09601,-18.92435 4.36236,-4.36237 8.08041,-4.1264 16.78625,1.06535 6.7434,4.02144 7.30374,4.74029 7.67695,9.84873 0.33953,4.64721 -0.15871,5.95221 -3.1798,8.32859 -4.55401,3.58219 -7.96931,3.50556 -14.18739,-0.31832 z m 352.9646,1.54299 c -3.83393,-2.17408 -4.62328,-3.77716 -4.64625,-9.4361 -0.0185,-4.55477 0.57724,-5.40905 6.31292,-9.0529 3.48333,-2.21295 7.72757,-4.3759 9.43165,-4.80654 7.21116,-1.82233 13.91707,5.56751 11.4422,12.60919 -1.42488,4.0542 -13.01077,12.30228 -17.19193,12.23907 -1.47506,-0.0223 -3.88192,-0.72103 -5.34859,-1.55272 z M 232.26998,172.33334 c -7.61599,-10.83099 -8.54625,-16.17827 -3.66391,-21.0606 6.31492,-6.31494 12.30164,-3.95769 19.17825,7.55131 3.6045,6.03266 3.63204,9.1966 0.11893,13.66281 -3.98272,5.06321 -12.02052,4.98428 -15.63326,-0.15352 z m 203.22926,1.64208 c -5.20049,-5.20048 -3.77296,-12.61016 4.28596,-22.24649 4.00934,-4.79408 9.75396,-4.97766 14.27542,-0.45619 4.36237,4.36236 4.1264,8.08041 -1.06535,16.78625 -4.01867,6.73875 -4.74289,7.30395 -9.83611,7.67634 -3.7215,0.2721 -6.19657,-0.29656 -7.65992,-1.75991 z m -100.8025,-27.01629 c -2.54493,-2.06075 -2.93202,-3.68367 -2.93202,-12.29246 0,-8.60879 0.38709,-10.2317 2.93202,-12.29246 1.61262,-1.30581 4.59908,-2.37421 6.6366,-2.37421 2.03753,0 5.02399,1.0684 6.63661,2.37421 2.54493,2.06076 2.93202,3.68367 2.93202,12.29246 0,8.60879 -0.38709,10.23171 -2.93202,12.29246 -1.61262,1.30581 -4.59908,2.37421 -6.63661,2.37421 -2.03752,0 -5.02398,-1.0684 -6.6366,-2.37421 z"
         id="path201" />
    </g>
  </g>
</svg>
